# Blender v2.81 (sub 16) OBJ File: 'road-pholder-straight.blend'
# www.blender.org
mtllib road-pholder-straight.mtl
o Cube.001
v 1.000000 -0.978937 -1.000000
v 1.000000 -0.998937 -1.000000
v 1.000000 -0.978937 1.000000
v 1.000000 -0.998937 1.000000
v -1.000000 -0.978937 -1.000000
v -1.000000 -0.998937 -1.000000
v -1.000000 -0.978937 1.000000
v -1.000000 -0.998937 1.000000
v 0.400000 -0.962224 -1.000000
v 0.400000 -0.982224 -1.000000
v 0.400000 -0.962224 1.000000
v 0.400000 -0.982224 1.000000
v -0.400000 -0.962224 -1.000000
v -0.400000 -0.982224 -1.000000
v -0.400000 -0.962224 1.000000
v -0.400000 -0.982224 1.000000
vt 0.698487 0.575405
vt 0.754859 0.575405
vt 0.754859 0.631776
vt 0.698487 0.631776
vt 0.642116 0.631776
vt 0.698487 0.688148
vt 0.642116 0.688148
vt 0.642116 0.462662
vt 0.698487 0.462662
vt 0.698487 0.519033
vt 0.642116 0.519033
vt 0.585745 0.575405
vt 0.642116 0.575405
vt 0.585745 0.631776
vt 0.377978 0.478832
vt 0.158798 0.478832
vt 0.158798 0.068801
vt 0.377978 0.068801
vt 0.608164 0.566162
vt 0.687607 0.691279
vt 0.558004 0.689291
vt 0.622112 0.563201
vt 0.558004 0.465841
vt 0.636605 0.584648
vt 0.622656 0.587609
vt 0.684054 0.466136
vn 0.0000 1.0000 0.0000
vn 0.0000 0.0000 1.0000
vn -1.0000 0.0000 0.0000
vn 0.0000 -1.0000 0.0000
vn 1.0000 0.0000 0.0000
vn 0.0000 0.0000 -1.0000
usemtl roadmat
s off
f 1/1/1 5/2/1 7/3/1 3/4/1
f 4/5/2 3/4/2 7/6/2 8/7/2
f 8/8/3 7/9/3 5/10/3 6/11/3
f 6/12/4 2/13/4 4/5/4 8/14/4
f 2/13/5 1/1/5 3/4/5 4/5/5
f 6/11/6 5/10/6 1/1/6 2/13/6
f 9/15/1 13/16/1 15/17/1 11/18/1
f 12/19/2 11/20/2 15/21/2 16/22/2
f 16/22/3 15/21/3 13/23/3 14/24/3
f 14/24/4 10/25/4 12/19/4 16/22/4
f 10/25/5 9/26/5 11/20/5 12/19/5
f 14/24/6 13/23/6 9/26/6 10/25/6
