# Blender v2.81 (sub 16) OBJ File: 'road-pholder-4way.blend'
# www.blender.org
mtllib road-pholder-4way.mtl
o Cube.002
v 0.400000 -0.962224 -1.000000
v 0.400000 -0.982224 -1.000000
v 0.400000 -0.962224 1.000000
v 0.400000 -0.982224 1.000000
v -0.400000 -0.962224 -1.000000
v -0.400000 -0.982224 -1.000000
v -0.400000 -0.962224 1.000000
v -0.400000 -0.982224 1.000000
v 1.000000 -0.978937 -1.000000
v 1.000000 -0.998937 -1.000000
v 1.000000 -0.978937 1.000000
v 1.000000 -0.998937 1.000000
v -1.000000 -0.978937 -1.000000
v -1.000000 -0.998937 -1.000000
v -1.000000 -0.978937 1.000000
v -1.000000 -0.998937 1.000000
v -1.000000 -0.962224 -0.400000
v -1.000000 -0.982224 -0.400000
v 1.000000 -0.962224 -0.400000
v 1.000000 -0.982224 -0.400000
v -1.000000 -0.962224 0.400000
v -1.000000 -0.982224 0.400000
v 1.000000 -0.962224 0.400000
v 1.000000 -0.982224 0.400000
vt 0.210143 0.724541
vt 0.210143 0.625132
vt 0.309552 0.625132
vt 0.309552 0.724541
vt 0.809874 0.459958
vt 0.907086 0.340641
vt 0.907086 0.582057
vt 0.796929 0.474690
vt 0.687366 0.568392
vt 0.786593 0.465582
vt 0.794905 0.452355
vt 0.687366 0.361073
vt 0.836284 0.578863
vt 0.955429 0.578863
vt 0.955429 0.698009
vt 0.836284 0.698009
vt 0.717138 0.698009
vt 0.836284 0.817154
vt 0.717138 0.817154
vt 0.717138 0.340572
vt 0.836284 0.340572
vt 0.836284 0.459717
vt 0.717138 0.459717
vt 0.597992 0.578863
vt 0.717138 0.578863
vt 0.597992 0.698009
vt 0.458665 0.585229
vt 0.458665 0.624993
vt 0.210143 0.624993
vt 0.210143 0.585229
vt 0.620158 0.594326
vt 0.687227 0.817085
vt 0.538489 0.792431
vt 0.613333 0.595418
vt 0.538489 0.340641
vt 0.605557 0.563400
vt 0.612382 0.562308
vt 0.687227 0.365295
vn 0.0000 1.0000 0.0000
vn 0.0000 0.0000 1.0000
vn -1.0000 0.0000 0.0000
vn 0.0000 -1.0000 0.0000
vn 1.0000 0.0000 0.0000
vn 0.0000 0.0000 -1.0000
usemtl roadmat
s off
f 1/1/1 5/2/1 7/3/1 3/4/1
f 4/5/2 3/6/2 7/7/2 8/8/2
f 8/8/3 7/7/3 5/9/3 6/10/3
f 6/10/4 2/11/4 4/5/4 8/8/4
f 2/11/5 1/12/5 3/6/5 4/5/5
f 6/10/6 5/9/6 1/12/6 2/11/6
f 9/13/1 13/14/1 15/15/1 11/16/1
f 12/17/2 11/16/2 15/18/2 16/19/2
f 16/20/3 15/21/3 13/22/3 14/23/3
f 14/24/4 10/25/4 12/17/4 16/26/4
f 10/25/5 9/13/5 11/16/5 12/17/5
f 14/23/6 13/22/6 9/13/6 10/25/6
f 17/27/1 21/28/1 23/29/1 19/30/1
f 20/31/5 19/32/5 23/33/5 24/34/5
f 24/34/2 23/33/2 21/35/2 22/36/2
f 22/36/4 18/37/4 20/31/4 24/34/4
f 18/37/6 17/38/6 19/32/6 20/31/6
f 22/36/3 21/35/3 17/38/3 18/37/3
