<svg id="Layer_1" data-name="Layer 1" xmlns="http://www.w3.org/2000/svg" viewBox="0 0 144.12 239.54"><defs><style>.cls-1{fill:#fff;}</style></defs><rect class="cls-1" x="63.45" y="143.96" width="17.5" height="95.58"/><path class="cls-1" d="M249.15,271.82a35.77,35.77,0,0,0,13.68,0Z" transform="translate(-183.94 -127.13)"/><path class="cls-1" d="M311,205.81a35.67,35.67,0,0,0,2.41-12.94,36.06,36.06,0,0,0-27.75-35.07A32.87,32.87,0,0,0,220,160c0,.94,0,1.87.12,2.79a36,36,0,0,0-23.78,33.88,35.6,35.6,0,0,0,1.78,11.17A36,36,0,0,0,238,267.65a35.23,35.23,0,0,0,9.26,3.75v-2.1h0V253.92l-20.82-20.83,4.19-4.18,16.63,16.63V205.22h17.5v28.5l18.48-18.48,4.18,4.19-22.66,22.66V269.3h0v2.09a35.54,35.54,0,0,0,9.28-3.74A36,36,0,0,0,311,205.81Z" transform="translate(-183.94 -127.13)"/></svg>