<svg id="Layer_1" data-name="Layer 1" xmlns="http://www.w3.org/2000/svg" viewBox="0 0 195.95 192.17"><defs><style>.cls-1{fill:#fff;}</style></defs><path class="cls-1" d="M258.05,231a60.64,60.64,0,0,0-18.67,2.92,10.58,10.58,0,0,0-.87-1.88l-2.31-4a11.8,11.8,0,0,0-15.11-4.86,12.64,12.64,0,0,0,1.39-5.79A13,13,0,0,0,219,208.5l-8.09-8.77a13,13,0,0,0-12.6-3.84l-.75-1.13a13,13,0,0,0-.78-16.77l-8.09-8.77A13.07,13.07,0,0,0,169.49,187l8.08,8.77A13.08,13.08,0,0,0,190,199.61l.82,1.27a13,13,0,0,0,.93,16.58l8.08,8.77a13,13,0,0,0,9.2,4.19A11.78,11.78,0,0,0,206.8,245l2.31,4a11.58,11.58,0,0,0,2.8,3.27A60.67,60.67,0,1,0,258.05,231Zm-71.4-45.78-1.1.72a3.84,3.84,0,0,0-1.09,5.33l1.59,2.43a8.83,8.83,0,0,1-7.32-2.84l-4.27-4.62a8.9,8.9,0,0,1,13.08-12.06l4.27,4.63a8.84,8.84,0,0,1,1.57,9.64l-1.4-2.14A3.83,3.83,0,0,0,186.65,185.17Zm26.89,36.67a8.91,8.91,0,0,1-12.58-.52l-4.26-4.61a8.89,8.89,0,0,1-1.68-9.44l1.66,2.53a3.86,3.86,0,0,0,5.34,1.1l1.09-.72a3.87,3.87,0,0,0,1.11-5.34l-2-3a6.24,6.24,0,0,1,1-.07,8.84,8.84,0,0,1,6.53,2.86l4.27,4.63A8.9,8.9,0,0,1,213.54,221.84Zm81.72,48.68a7.15,7.15,0,0,1-10.06,1.11l-14.93-12a7.16,7.16,0,0,1-1.09-10.06,6.88,6.88,0,0,1,1.59-1.46A7.66,7.66,0,0,1,274,247a12.29,12.29,0,0,1,5.71.45,82.73,82.73,0,0,1,8.46,5.64c2.09,1.59,4,3.18,5.66,4.7a11.09,11.09,0,0,1,3,7.5A10.62,10.62,0,0,1,295.26,270.52Z" transform="translate(-166.03 -160.13)"/><polygon class="cls-1" points="168.37 57.59 178.02 89.45 153.21 69.26 148.31 97.87 137.97 63.79 123.94 73.78 133.64 59.78 110.45 65.49 130.52 47.19 109.76 33.36 133.09 35.61 117.93 0 147.37 30 157.54 3.84 156.42 32.36 176.63 15.75 164.12 44.79 195.95 49.12 168.37 57.59"/></svg>