<svg id="Layer_1" data-name="Layer 1" xmlns="http://www.w3.org/2000/svg" viewBox="0 0 131.26 172.93"><defs><style>.cls-1{fill:#fff;}</style></defs><path class="cls-1" d="M322.67,347.46l-4,2.21c-3.93,2.14-14.33-4.16-18-10.93l-35.2-69.65c-3.7-6.78-3.5-14,.43-16.15l4-2.2c3.94-2.15,10.12,1.6,13.82,8.37l39.43,65C326.87,330.94,326.6,345.32,322.67,347.46Z" transform="translate(-194.52 -177.16)"/><rect class="cls-1" x="230.49" y="238.62" width="73.61" height="24.17" rx="2.72" transform="translate(-281.96 -18.46) rotate(-28.62)"/><polygon class="cls-1" points="61.16 7.32 64.61 17.5 57.92 9.09 48.58 14.18 50.3 20.33 46.06 15.55 36.02 21.04 39.34 32.88 31.18 23.68 22.08 28.64 24.55 37.46 18.48 30.61 9.95 35.27 40.57 77.35 93.39 48.52 74.56 0 61.16 7.32"/><path class="cls-1" d="M214.42,242.91a10,10,0,1,1-19.9,0c0-4.3,5.07-14,7.57-19.85.75-1.76,1.19-5.1,2.38-5.1s2.12,3.58,2.89,5C210,228.07,214.42,238.55,214.42,242.91Z" transform="translate(-194.52 -177.16)"/></svg>